<svg id="Capa_1" data-name="Capa 1" xmlns="http://www.w3.org/2000/svg" viewBox="0 0 260 186" width="260" height="186">
  <defs>
    <style>.cls-1{fill:#8d002e;}</style>
  </defs>
  <title>logo_UDLA_online_vertical</title>
  <path class="cls-1" d="M154.37,61.08c.87-.92,1.76-1.81,2.64-2.69s1.85-1.82,2.78-2.76l8.71-8c2.6-2.51,5.21-5.06,7.85-7.56.81-.88,1.68-1.71,2.54-2.62a27.39,27.39,0,0,0,4.2-4.27c1-1,1.95-1.94,2.88-2.9,2.08-2.55,4.39-4.8,6.36-7.45,1-1.38,3.24-4,3.21-5.86a.71.71,0,0,0,0-.2,1,1,0,0,0-.32-.06.93.93,0,0,0-.41.12l-.19.1-.17-.16s0-.07-.05-.09a1.42,1.42,0,0,1-1.09.49h-.13c-.09,0-.19-.08-.3-.11l-.38-.12.25-.32h-.09v-.24c0-.08,0-.12-.29-.15a1.57,1.57,0,0,0-.66.19c-.22.1-.34.23-.31.23l-.09.3-.29-.11a1.3,1.3,0,0,1-.27-.1l-.1,0,0-.09a.26.26,0,0,1,0-.1l-.14-.29.24-.11h0l-.23-.19-.52.13-.1,0-.11,0a4.05,4.05,0,0,1-.61-.48c-.27.09-.42,0-.55.11a5.43,5.43,0,0,0-1.16,1.49c-.46.7-.94,1.48-1.21,1.87-.68.86-1.39,1.73-2.07,2.57a101.87,101.87,0,0,1-8,8.35c-1.63,1.66-3.3,3.32-4.95,4.95q-8.37,8-16.73,16-6,5.78-12,11.51Q129.94,74.48,117.4,86.56c-2.85,2.75-5.75,5.49-8.62,8.24-1.22,1.2-2.43,2.42-3.64,3.63-1.66,1.63-3.33,3.25-5,4.89a8.69,8.69,0,0,0-2.22,5,6.16,6.16,0,0,0-.12,1.19,2.77,2.77,0,0,0,.12.88c.29.22.58.43.86.62a3.3,3.3,0,0,0,1.9.59,4.66,4.66,0,0,0,3.52-1.9c.67-.81,1.14-1.75,1.82-2.7l0,0h0q4.91-4.76,9.86-9.45l6.21-6q6.28-5.79,12.62-11.57c1.57-1.48,3.17-3,4.74-4.49,2.07-2,4.09-3.92,6.16-5.9C148.56,66.74,151.48,63.91,154.37,61.08Z" />
  <path class="cls-1" d="M212.36,80.59c-3.92-.58-7.8-1.14-11.74-1.74s-7.7-.94-11.54-1.39l-.23,0v-.2c-1.28-8.94-8.81-11.82-19.27-11.85h-.73c-1.67.13-3.34.31-5,.44-4.27.82-8.32,1.37-11.45,3.15a4,4,0,0,0-2,3.23,2.27,2.27,0,0,0,.94,1.89,3.8,3.8,0,0,0,2,.5A14.56,14.56,0,0,0,156.9,74c1.44-.53,2.87-1,4.33-1.55a45.24,45.24,0,0,1,10.44-1.38,17.06,17.06,0,0,1,5.49.73c1.31.44,4.13,1.93,4.19,4.24a2.46,2.46,0,0,1-.21,1l0,0,0,.08a6.5,6.5,0,0,1-2.32.58c-1,.09-2,.19-2.51.29q-6.42,1.05-12.83,2a79.64,79.64,0,0,0-24.18,9.13c-3.13,1.86-6.43,3.9-8.6,6.63-1.56,1.88-5.1,6-5.1,9.75a5.55,5.55,0,0,0,.45,2.17c1.27,3,5.59,4.09,10.33,4.09a40.79,40.79,0,0,0,10.14-1.36c9.77-2.67,18.2-6.31,25.45-11.45,2.41-1.72,4.62-3.67,6.93-5.53a37.4,37.4,0,0,0,5.63-6c.57-.81,1.13-1.62,1.72-2.41h0v0a2.54,2.54,0,0,1,1.24-.35,13.88,13.88,0,0,1,1.73-.1,4.24,4.24,0,0,1,1.06.09c3.94.25,7.89.48,11.84.75,2.09.16,4.17.36,6.25.53,2.38.22,4.77.41,7.15.65,5,.83,10,.9,14.78,1.85,3.89.77,7.68,1.54,11.4,2.52,1.63.43,3.36,1.27,5,1.38a.94.94,0,0,0,0-.21l.07-.22H247l.42,0a.32.32,0,0,0-.13-.13l-.42-.53.65,0,.38,0s-.07-.09-.07-.15l-.19-.36.43,0,.36,0c-4.27-2.68-9.55-4.08-15-5.68C226.85,83.18,219.66,82,212.36,80.59Zm-38.22,8.67-.19-.2.19.2a40.16,40.16,0,0,1-7.43,5.22,88.38,88.38,0,0,1-22,9.81,29.32,29.32,0,0,1-7.75,1.14,16.46,16.46,0,0,1-4.54-.58l-.16-.09,0-.17v0c.05-4.31,5.36-7.15,8-8.77a80.44,80.44,0,0,1,21.84-8.28c2.48-.61,5-.82,7.7-1.31,1.22-.08,2.46-.19,3.7-.27.25,0,.59,0,.91,0,.58,0,1.21,0,1.5.6a.86.86,0,0,1,0,.28C175.92,87.77,174.46,88.91,174.14,89.26Z" />
  <path class="cls-1" d="M204.24,101.81c1.67,0,4.45-.18,5.22.77-.19.85-1.57,1.43-2.35,1.76a26.42,26.42,0,0,1-9.81,1.86c-1.68,0-4.42.28-5.28-.6a1.4,1.4,0,0,0,.16-.2c.43-.33.85-.69,1.25-1,1.14-.2,2.26-.43,3.38-.65.16-.16.28-.31.41-.43a5.16,5.16,0,0,1,1.93-.78c1.22-.19,2.46-.4,3.67-.62Z" />
  <path class="cls-1" d="M67.62,75.34a3.91,3.91,0,0,0-2-.5,12,12,0,0,0-4.37,1c-3.25,1.36-10.27,7-17.59,12.71S28.7,100.2,23.93,102.27a4.77,4.77,0,0,1-1.54.44.84.84,0,0,1-.84-.92,6.52,6.52,0,0,1,1.27-2.6c.75-1.09,1.78-2.42,3-3.94,2.45-3,5.68-6.8,8.89-10.71C41.2,76.79,47.7,68.37,48,64.66a1.7,1.7,0,0,0-.44-1.52,3.21,3.21,0,0,0-2.25-.69c-4,0-11.44,3.91-18.19,8.22A172,172,0,0,0,12.67,81a3.08,3.08,0,0,0-1,1.16v0h0l-.05.08v0c0,.16.11.32.34.47a2.2,2.2,0,0,0,.77.23h.12l.09,0H13l.25.06h.1c.17,0,.43-.07.72-.07a.87.87,0,0,1,.91.61c0,.08.26.22.69.24a7.39,7.39,0,0,0,1.69-.32,17,17,0,0,0,2.91-.61A4.59,4.59,0,0,1,22,82.46h0a35.26,35.26,0,0,0,3.57-2.15c1.38-.92,2.58-1.75,2.58-1.75l.24.28,0-.16h0l.45-.12a3,3,0,0,1,.68-.18.55.55,0,0,1,.3.08.5.5,0,0,1,.2.41,1.31,1.31,0,0,1-.17.34l0,0v0A89.17,89.17,0,0,0,19.46,92.78a49.86,49.86,0,0,0-4.65,8.41v0l0,0a22.63,22.63,0,0,0-2.12,6.93,3.84,3.84,0,0,0,.67,3.1,3.34,3.34,0,0,0,2.62.9c3.46,0,9.37-2.64,15.41-6.09A176.55,176.55,0,0,0,47.63,95.25l.1-.08.11,0A10.32,10.32,0,0,1,49,95a1.45,1.45,0,0,1,.91.25,1,1,0,0,1,.33.58,1.39,1.39,0,0,1,.35.82,9.64,9.64,0,0,1,0,1.31c-.16,1.81-.74,4.3-.87,5.4a.83.83,0,0,0,0,.4l.07.07,0,.2a11.58,11.58,0,0,0-.21,1.33,3.18,3.18,0,0,0,.31,2.1,1.35,1.35,0,0,0,1.18.57c2,0,6-2.74,7.89-4.53.43-.42.79-.77,1-1h0s0,0-.11-.09a2.47,2.47,0,0,0-.47-.06,2.33,2.33,0,0,1-1.06-.21,2.45,2.45,0,0,1-2-2.92c.47-4.45,6.78-12.58,9.93-18.21V81a9.22,9.22,0,0,0,2-4.11A1.52,1.52,0,0,0,67.62,75.34Z" />
  <path class="cls-1" d="M138.1,7.54c-.66,0-1.33,0-2-.11H136a16.29,16.29,0,0,0-4-.37c-1.48,0-3,.07-4.24.09-1.42.62-3.82.15-5.26.5-2.09.47-4.56.8-6.48,1.41h-.87c-.73.18-1.64.33-2.41.58-2.37.8-4.93,1.36-7.26,2.14q-2.73.9-5.41,1.85a158,158,0,0,0-15.68,6.55c-2,1-4.06,1.7-5.93,2.79-2.75,1.59-5.61,3.08-8.28,4.64-.75.42-1.48.79-2.22,1.17a3.79,3.79,0,0,1,.18.42,4.66,4.66,0,0,1,.83.15c.14.22,0,.34-.1.58.84,0,1.33-.58,2.34-.42,0,.14,0,.31,0,.43.38,0,.76,0,1.15-.07,0,0,0,.06,0,.06a1.15,1.15,0,0,0-.35.72l.19.2c1.39.52,3-.17,4.34.26a4.11,4.11,0,0,1,2.83-.73,3.26,3.26,0,0,1,.37.49c1.16-.55,2.34-1.07,3.52-1.6l1.81-.77c3.72-1.55,7.71-3.25,11.55-4.81,3-1.23,6.1-2,9-3.16,1.11-.45,2.12-.4,3.15-.77,2.51-.86,5.32-1.28,7.86-2.16h.88c.93-.21,2.35-.46,3.22-.76H122c.6-.12,1.94-.26,2.46-.43l0,0h2.21a17.23,17.23,0,0,1,3.05-.24,30.55,30.55,0,0,1,12,2.5,14.52,14.52,0,0,1,5.8,4.8,9.49,9.49,0,0,1,1.37,5.26A17.13,17.13,0,0,1,146.6,37a107,107,0,0,1-11.08,15c-3,3.45-6.42,6.46-9.43,9.81-2,2.28-4.35,4.22-6.44,6.39A13.88,13.88,0,0,1,117,70.89l-.08,0h-.18l0,0,0,0a.22.22,0,0,0-.09-.07c-.07-.06-.22-.14-.35-.24-.29-.22-.66-.5-1.06-.77-.79-.56-1.71-1.18-2-1.3a24.92,24.92,0,0,0-7.69-1.9l-1.19.16,0,0h0c-.6-.06-1.18-.1-1.73-.11-2.42.48-5.22.62-7.5,1.41-10.29,3.41-20.7,11.6-26.22,19.81a30.89,30.89,0,0,0-4.37,9.52,8.9,8.9,0,0,0-.26,2.22,10,10,0,0,0,.06,1.11c.2,1.25.08,2.36.3,3.41.73,3.22,2.74,6.52,5.76,7.29a10.57,10.57,0,0,0,2.6.32,16.26,16.26,0,0,0,7.75-2.3c2.77-1.6,5.33-2.94,7.85-4.65a99.71,99.71,0,0,0,7.72-6.38c3.24-2.68,6.46-5.46,9.47-8.32,1.22-1.2,2.49-2.58,3.86-3.69s2.87-2.51,4.33-3.78c1-.89,1.88-2.08,3-3,1.5-1.15,2.74-2.61,4.17-3.89,3.49-3,6.81-6.2,10.1-9.46,3.55-3.51,7.5-6.75,10.61-10.67.52-.51,1.06-1,1.57-1.49A52.63,52.63,0,0,0,148,48.5c.7-.81,1.38-1.68,2.07-2.47a45,45,0,0,0,4.41-7.13,35.16,35.16,0,0,0,1.64-4.8,18.88,18.88,0,0,0,.83-5.46C157,17.94,147.23,9.69,138.1,7.54ZM111.24,76c-.83,1.21-2.42,2.11-3.47,2.93-2.06,1.59-3.94,3.41-6,5.05-1.47,1.29-2.91,2.57-4.35,3.89-3,2.49-6,5-9,7.37C86,97,83.72,99.19,81.14,101a37.84,37.84,0,0,1-7.42,4.43,7.94,7.94,0,0,1-2.41.53h0a2.23,2.23,0,0,1-1.8-.78,4.22,4.22,0,0,1-.66-2.45,8,8,0,0,1,.33-2.22,21.82,21.82,0,0,1,4.29-7.54A54.92,54.92,0,0,1,95.67,76.79a62.1,62.1,0,0,1,7.23-2c1-.08,2.06-.18,3.13-.3h0c1.76,0,3.83.15,5,1h.55Z" />
  <path class="cls-1" d="M233.2,164.27H217.08a1.94,1.94,0,1,1,0-3.87H233.2c6.25,0,11.34-4,11.34-9V139.08c0-5-5.09-9-11.34-9H121.09c-6.25,0-11.34,4-11.34,9v12.31c0,5,5.09,9,11.34,9h73.35a1.94,1.94,0,0,1,0,3.87H121.09c-8.39,0-15.21-5.78-15.21-12.88V139.08c0-7.1,6.82-12.87,15.21-12.87H233.2c8.38,0,15.21,5.77,15.21,12.87v12.31C248.41,158.49,241.58,164.27,233.2,164.27Z" />
  <path class="cls-1" d="M206.11,179a1,1,0,0,1-.45-.1,1,1,0,0,1-.55-.6l-1.79-4.88-3.82,1.41a1.07,1.07,0,0,1-1.06-.19,1.09,1.09,0,0,1-.37-1l2.87-16a1.06,1.06,0,0,1,.68-.81,1.08,1.08,0,0,1,1,.18l12.53,10.41a1,1,0,0,1,.37,1,1.05,1.05,0,0,1-.69.82L211,170.59l1.78,4.87a1.08,1.08,0,0,1-.64,1.37l-5.62,2A1,1,0,0,1,206.11,179Zm-2.15-8a1.07,1.07,0,0,1,1,.7l1.79,4.88,3.61-1.32-1.78-4.87a1.06,1.06,0,0,1,.64-1.37l3.18-1.17-9.68-8-2.21,12.39,3.08-1.14A1.19,1.19,0,0,1,204,170.93Z" />
  <path class="cls-1" d="M136.63,145.49c0,3.71-2.25,6-5.56,6s-5.33-2.53-5.33-5.76c0-3.4,2.17-5.93,5.51-5.93S136.63,142.36,136.63,145.49Zm-8.18.15c0,2.22,1,3.78,2.75,3.78s2.72-1.65,2.72-3.85c0-2-1-3.78-2.74-3.78S128.45,143.44,128.45,145.64Z" />
  <path class="cls-1" d="M146.72,151.27V139.94h3l2.35,4.15a32,32,0,0,1,1.85,3.88H154a44,44,0,0,1-.21-4.72v-3.31h2.35v11.33h-2.69L151,146.9a43.71,43.71,0,0,1-2-4l-.05,0c.07,1.49.1,3.09.1,4.94v3.41Z" />
  <path class="cls-1" d="M166.72,139.94h2.58v9.18h4.5v2.15h-7.08Z" />
  <path class="cls-1" d="M186.29,139.94v11.33h-2.57V139.94Z" />
  <path class="cls-1" d="M196.92,151.27V139.94h3l2.35,4.15a33.58,33.58,0,0,1,1.85,3.88h0a41.43,41.43,0,0,1-.22-4.72v-3.31h2.36v11.33h-2.69l-2.42-4.37a39.09,39.09,0,0,1-2-4l-.05,0c.07,1.49.1,3.09.1,4.94v3.41Z" />
  <path class="cls-1" d="M223.66,146.48h-4.17v2.69h4.66v2.1h-7.23V139.94h7V142h-4.42v2.35h4.17Z" />
</svg>